<svg width="72" height="72" viewBox="0 0 72 72" fill="none" xmlns="http://www.w3.org/2000/svg">
<rect width="72" height="72" rx="12" fill="url(#paint0_linear_168_268)"/>
<path d="M58.3811 22.8558C56.7361 23.5844 54.9667 24.0706 53.1003 24.3006C54.9978 23.1741 56.4576 21.3773 57.1427 19.2548C55.3671 20.2956 53.4 21.0603 51.3073 21.4631C49.6362 19.6913 47.2525 18.5921 44.6115 18.5921C39.5383 18.5921 35.4264 22.668 35.4264 27.6939C35.4264 28.4052 35.5097 29.0977 35.6663 29.7704C28.0342 29.3875 21.265 25.7592 16.7365 20.2533C15.9407 21.5987 15.4931 23.1741 15.4931 24.8365C15.4931 27.9961 17.1108 30.7776 19.5777 32.4164C18.0719 32.3704 16.6544 31.9514 15.4135 31.2799C15.4135 31.3073 15.4135 31.3483 15.4135 31.3869C15.4135 35.8023 18.5805 39.4791 22.7783 40.3159C22.0111 40.526 21.2004 40.6429 20.3648 40.6429C19.7717 40.6429 19.1935 40.5758 18.6339 40.475C19.8028 44.0834 23.1936 46.7207 27.2111 46.7991C24.0677 49.2362 20.1086 50.696 15.8039 50.696C15.0604 50.696 14.333 50.6537 13.6143 50.5666C17.6815 53.1418 22.5109 54.6513 27.6948 54.6513C44.5866 54.6513 53.8277 40.7797 53.8277 28.7458C53.8277 28.3517 53.8153 27.9588 53.7967 27.5708C55.5996 26.2976 57.1539 24.6911 58.3811 22.8558Z" fill="#FBFBFB"/>
<defs>
<linearGradient id="paint0_linear_168_268" x1="-7.71429" y1="-2.57143" x2="61.7143" y2="65.5714" gradientUnits="userSpaceOnUse">
<stop stop-color="#6D9CC8"/>
<stop offset="1" stop-color="#343848"/>
</linearGradient>
</defs>
</svg>
