<svg width="72" height="72" viewBox="0 0 72 72" fill="none" xmlns="http://www.w3.org/2000/svg">
<rect width="72" height="72" rx="12" fill="url(#paint0_linear_168_258)"/>
<path d="M52.4002 20.6985C49.3417 19.2675 46.0713 18.2274 42.6522 17.6353C42.2323 18.3944 41.7417 19.4155 41.4035 20.2278C37.7689 19.6812 34.1678 19.6812 30.6 20.2278C30.2619 19.4155 29.7602 18.3944 29.3365 17.6353C25.9137 18.2274 22.6396 19.2713 19.581 20.7061C13.4118 30.0285 11.7395 39.1194 12.5756 48.0812C16.6674 51.1368 20.6327 52.993 24.5312 54.2076C25.4937 52.8829 26.3522 51.4746 27.0918 49.9905C25.6833 49.4553 24.3342 48.7948 23.0596 48.0281C23.3977 47.7775 23.7285 47.5156 24.0481 47.2461C31.8227 50.8825 40.27 50.8825 47.9518 47.2461C48.2751 47.5156 48.6058 47.7775 48.9403 48.0281C47.6619 48.7986 46.3091 49.459 44.9006 49.9943C45.6402 51.4746 46.495 52.8867 47.4612 54.2114C51.3634 52.9967 55.3325 51.1406 59.4242 48.0812C60.4053 37.6922 57.7481 28.6848 52.4002 20.6985ZM28.1509 42.5698C25.8171 42.5698 23.9031 40.391 23.9031 37.7377C23.9031 35.0845 25.7762 32.9019 28.1509 32.9019C30.5257 32.9019 32.4396 35.0806 32.3988 37.7377C32.4025 40.391 30.5257 42.5698 28.1509 42.5698ZM43.8489 42.5698C41.515 42.5698 39.6011 40.391 39.6011 37.7377C39.6011 35.0845 41.4741 32.9019 43.8489 32.9019C46.2236 32.9019 48.1376 35.0806 48.0967 37.7377C48.0967 40.391 46.2236 42.5698 43.8489 42.5698Z" fill="#FBFBFB"/>
<defs>
<linearGradient id="paint0_linear_168_258" x1="-7.71429" y1="-2.57143" x2="61.7143" y2="65.5714" gradientUnits="userSpaceOnUse">
<stop stop-color="#706ABC"/>
<stop offset="1" stop-color="#343848"/>
</linearGradient>
</defs>
</svg>
