<svg width="22" height="22" viewBox="0 0 22 22" fill="none" xmlns="http://www.w3.org/2000/svg">
<path d="M19.25 5.48165C16.1975 5.17915 13.1267 5.02332 10.065 5.02332C8.25 5.02332 6.435 5.11498 4.62 5.29832L2.75 5.48165" stroke="#343847" stroke-width="2" stroke-linecap="round" stroke-linejoin="round"/>
<path d="M7.79163 4.55581L7.99329 3.35498C8.13996 2.48415 8.24996 1.83331 9.79913 1.83331H12.2008C13.75 1.83331 13.8691 2.52081 14.0066 3.36415L14.2083 4.55581" stroke="#343847" stroke-width="2" stroke-linecap="round" stroke-linejoin="round"/>
<path d="M17.2792 8.37836L16.6833 17.6092C16.5825 19.0484 16.5 20.1667 13.9425 20.1667H8.05749C5.49999 20.1667 5.41749 19.0484 5.31666 17.6092L4.72083 8.37836" stroke="#343847" stroke-width="2" stroke-linecap="round" stroke-linejoin="round"/>
<path d="M9.46912 15.125H12.5216" stroke="#343847" stroke-width="2" stroke-linecap="round" stroke-linejoin="round"/>
<path d="M8.70837 11.4583H13.2917" stroke="#343847" stroke-width="2" stroke-linecap="round" stroke-linejoin="round"/>
</svg>
